<svg width="147" height="34" viewBox="0 0 147 34" fill="none" xmlns="http://www.w3.org/2000/svg">
<g opacity="0.7">
<path d="M58.023 26.0462C56.2125 26.0462 54.6645 25.7294 53.379 25.0957C52.1116 24.462 51.0887 23.6382 50.3101 22.6243C49.5316 21.6104 48.9613 20.515 48.5992 19.3382C48.2371 18.1432 48.056 16.9935 48.056 15.8891V15.2916C48.056 14.0967 48.2371 12.9017 48.5992 11.7068C48.9794 10.5118 49.5588 9.42549 50.3373 8.4478C51.1158 7.47011 52.1297 6.68253 53.379 6.08505C54.6283 5.48757 56.1219 5.18883 57.8601 5.18883C59.6344 5.18883 61.1552 5.49663 62.4226 6.11221C63.69 6.72779 64.6948 7.5878 65.4372 8.69222C66.1795 9.79665 66.6321 11.1002 66.7951 12.603H64.0793C63.9344 11.4804 63.5723 10.5571 62.9929 9.83286C62.4136 9.09054 61.6803 8.53833 60.7931 8.17622C59.9241 7.81411 58.9464 7.63306 57.8601 7.63306C56.6832 7.63306 55.6512 7.84127 54.764 8.25769C53.8769 8.65601 53.1346 9.22633 52.5371 9.96865C51.9577 10.6929 51.5141 11.5348 51.2063 12.4943C50.9167 13.4539 50.7718 14.495 50.7718 15.6175C50.7718 16.6857 50.9167 17.6996 51.2063 18.6592C51.5141 19.6188 51.9668 20.4698 52.5642 21.2121C53.1798 21.9544 53.9403 22.5428 54.8455 22.9774C55.7508 23.3938 56.81 23.602 58.023 23.602C59.7249 23.602 61.1552 23.1765 62.314 22.3256C63.4727 21.4746 64.1788 20.2434 64.4323 18.6321H67.1481C66.9671 19.99 66.5054 21.2302 65.7631 22.3527C65.0388 23.4753 64.0249 24.3715 62.7214 25.0414C61.4359 25.7113 59.8698 26.0462 58.023 26.0462ZM79.3943 25.5574V21.2121H78.9597V16.1878C78.9597 15.1921 78.6972 14.4407 78.1722 13.9337C77.6652 13.4268 76.9138 13.1733 75.918 13.1733C75.3568 13.1733 74.7774 13.1824 74.1799 13.2005C73.5825 13.2186 73.0121 13.2367 72.469 13.2548C71.9258 13.2729 71.4551 13.3 71.0568 13.3362V11.055C71.4551 11.0188 71.8715 10.9916 72.306 10.9735C72.7587 10.9373 73.2203 10.9192 73.6911 10.9192C74.1618 10.9011 74.6145 10.892 75.049 10.892C76.5336 10.892 77.7467 11.0731 78.6882 11.4352C79.6296 11.7792 80.3267 12.3495 80.7793 13.1461C81.232 13.9428 81.4583 15.02 81.4583 16.378V25.5574H79.3943ZM74.6416 25.9376C73.5553 25.9376 72.6138 25.7565 71.8172 25.3944C71.0386 25.0142 70.4321 24.4711 69.9976 23.7649C69.5812 23.0588 69.373 22.2079 69.373 21.2121C69.373 20.1801 69.5993 19.3201 70.0519 18.6321C70.5226 17.9441 71.2016 17.4281 72.0888 17.0841C72.9759 16.722 74.0441 16.5409 75.2934 16.5409H79.2313V18.4963H75.1848C74.1347 18.4963 73.329 18.7498 72.7677 19.2567C72.2064 19.7637 71.9258 20.4154 71.9258 21.2121C71.9258 22.0087 72.2064 22.6515 72.7677 23.1403C73.329 23.6292 74.1347 23.8736 75.1848 23.8736C75.8004 23.8736 76.3888 23.7649 76.9501 23.5477C77.5113 23.3123 77.973 22.9321 78.3351 22.407C78.7153 21.8639 78.9235 21.1216 78.9597 20.1801L79.6659 21.2121C79.5753 22.2441 79.3219 23.1131 78.9054 23.8193C78.5071 24.5073 77.9458 25.0323 77.2216 25.3944C76.5155 25.7565 75.6555 25.9376 74.6416 25.9376ZM86.2434 25.5574V11.055H88.3074V17.2742H87.9815C87.9815 15.8438 88.1716 14.6398 88.5518 13.6621C88.9502 12.6664 89.5476 11.915 90.3443 11.408C91.1409 10.883 92.1458 10.6204 93.3588 10.6204H93.4674C95.2961 10.6204 96.6449 11.1908 97.514 12.3314C98.4012 13.472 98.8447 15.1196 98.8447 17.2742V25.5574H96.2376V16.731C96.2376 15.6085 95.9207 14.7123 95.287 14.0424C94.6533 13.3544 93.7843 13.0104 92.6799 13.0104C91.5392 13.0104 90.6159 13.3634 89.9097 14.0695C89.2036 14.7756 88.8506 15.7171 88.8506 16.894V25.5574H86.2434ZM106.605 25.5574L101.662 11.055H104.378L109.212 25.5574H106.605ZM107.257 25.5574V23.4934H110.407V25.5574H107.257ZM108.506 25.5574L112.716 11.055H115.268L110.977 25.5574H108.506ZM127.345 25.5574V21.2121H126.911V16.1878C126.911 15.1921 126.648 14.4407 126.123 13.9337C125.616 13.4268 124.865 13.1733 123.869 13.1733C123.308 13.1733 122.728 13.1824 122.131 13.2005C121.533 13.2186 120.963 13.2367 120.42 13.2548C119.877 13.2729 119.406 13.3 119.008 13.3362V11.055C119.406 11.0188 119.822 10.9916 120.257 10.9735C120.71 10.9373 121.171 10.9192 121.642 10.9192C122.113 10.9011 122.565 10.892 123 10.892C124.485 10.892 125.698 11.0731 126.639 11.4352C127.581 11.7792 128.278 12.3495 128.73 13.1461C129.183 13.9428 129.409 15.02 129.409 16.378V25.5574H127.345ZM122.593 25.9376C121.506 25.9376 120.565 25.7565 119.768 25.3944C118.99 25.0142 118.383 24.4711 117.949 23.7649C117.532 23.0588 117.324 22.2079 117.324 21.2121C117.324 20.1801 117.55 19.3201 118.003 18.6321C118.474 17.9441 119.153 17.4281 120.04 17.0841C120.927 16.722 121.995 16.5409 123.244 16.5409H127.182V18.4963H123.136C122.086 18.4963 121.28 18.7498 120.719 19.2567C120.157 19.7637 119.877 20.4154 119.877 21.2121C119.877 22.0087 120.157 22.6515 120.719 23.1403C121.28 23.6292 122.086 23.8736 123.136 23.8736C123.751 23.8736 124.34 23.7649 124.901 23.5477C125.462 23.3123 125.924 22.9321 126.286 22.407C126.666 21.8639 126.874 21.1216 126.911 20.1801L127.617 21.2121C127.526 22.2441 127.273 23.1131 126.856 23.8193C126.458 24.5073 125.897 25.0323 125.173 25.3944C124.466 25.7565 123.606 25.9376 122.593 25.9376ZM138.947 25.9919C137.046 25.9919 135.57 25.5845 134.52 24.7698C133.488 23.955 132.954 22.8416 132.918 21.4293H135.362C135.398 21.9906 135.679 22.5247 136.204 23.0317C136.747 23.5205 137.662 23.7649 138.947 23.7649C140.106 23.7649 140.993 23.5386 141.608 23.086C142.224 22.6153 142.532 22.0449 142.532 21.375C142.532 20.7776 142.306 20.3159 141.853 19.99C141.4 19.646 140.667 19.4197 139.653 19.311L138.078 19.1481C136.702 19.0032 135.579 18.5959 134.71 17.926C133.841 17.238 133.407 16.2784 133.407 15.0472C133.407 14.1238 133.642 13.3362 134.113 12.6845C134.584 12.0146 135.235 11.5076 136.068 11.1636C136.901 10.8015 137.861 10.6204 138.947 10.6204C140.576 10.6204 141.898 10.9826 142.912 11.7068C143.926 12.431 144.451 13.5083 144.487 14.9386H142.043C142.025 14.3592 141.753 13.8704 141.228 13.472C140.721 13.0556 139.961 12.8474 138.947 12.8474C137.933 12.8474 137.164 13.0556 136.639 13.472C136.114 13.8885 135.851 14.4135 135.851 15.0472C135.851 15.5904 136.032 16.0249 136.394 16.3508C136.774 16.6767 137.39 16.8849 138.241 16.9754L139.816 17.1384C141.373 17.3013 142.622 17.7359 143.564 18.442C144.505 19.13 144.976 20.1077 144.976 21.375C144.976 22.2803 144.714 23.086 144.189 23.7921C143.682 24.4801 142.975 25.0233 142.07 25.4216C141.165 25.8018 140.124 25.9919 138.947 25.9919Z" fill="black"/>
<path d="M16.2848 11.0444C16.3072 10.9267 16.551 10.9267 16.5734 11.0444C16.7858 12.1613 17.2658 14.0131 18.2223 14.9696C19.1788 15.9261 21.0306 16.406 22.1475 16.6185C22.2652 16.6409 22.2652 16.8846 22.1475 16.907C21.0306 17.1195 19.1788 17.5994 18.2223 18.5559C17.2658 19.5124 16.7858 21.3642 16.5734 22.4811C16.551 22.5988 16.3072 22.5988 16.2848 22.4811C16.0724 21.3642 15.5925 19.5124 14.636 18.5559C13.6794 17.5994 11.8276 17.1195 10.7107 16.907C10.593 16.8846 10.593 16.6409 10.7107 16.6185C11.8276 16.406 13.6794 15.9261 14.636 14.9696C15.5925 14.0131 16.0724 12.1613 16.2848 11.0444Z" fill="black"/>
<circle cx="4.66391" cy="2.06813" r="1.26913" fill="black"/>
<circle cx="2.12484" cy="4.80155" r="1.26913" fill="black"/>
<path d="M3.42798 1.77563C3.42889 2.03364 3.37918 2.46201 3.16626 2.83227C2.95616 3.19746 2.58464 3.51051 1.92603 3.54809L1.93384 3.7102C1.96698 3.70832 1.99961 3.70457 2.03149 3.70141L3.13794 4.49633L3.22095 4.59496C3.21734 4.69489 3.21509 4.79684 3.21509 4.89965L3.3772 4.89867C3.3772 4.86009 3.37973 4.82202 3.38013 4.78442L3.3938 4.80199L3.3811 4.71703C3.38883 4.30481 3.42658 3.95662 3.58423 3.7102C3.70356 3.5238 3.8989 3.38871 4.22876 3.33715H4.66333L4.70825 3.3186C4.72367 3.31948 4.73934 3.31942 4.75513 3.32055L4.75708 3.29906L4.85474 3.25903L4.76489 3.17895L4.76587 3.15844C4.75738 3.15783 4.74888 3.158 4.74048 3.15746L3.6731 2.21606L3.55591 2.18676C3.58179 2.02926 3.5905 1.88643 3.59009 1.77465L3.42798 1.77563Z" fill="black"/>
<circle cx="1.26913" cy="1.26913" r="1.26913" transform="matrix(1 0 0 -1 3.39453 32.6249)" fill="black"/>
<circle cx="1.26913" cy="1.26913" r="1.26913" transform="matrix(1 0 0 -1 0.855469 29.8914)" fill="black"/>
<path d="M3.42773 31.6482C3.42865 31.3902 3.37894 30.9619 3.16602 30.5916C2.95591 30.2264 2.5844 29.9134 1.92578 29.8758L1.93359 29.7137C1.96674 29.7155 1.99937 29.7193 2.03125 29.7225L3.1377 28.9275L3.2207 28.8289C3.2171 28.729 3.21484 28.627 3.21484 28.5242L3.37695 28.5252C3.37695 28.5638 3.37949 28.6018 3.37988 28.6394L3.39355 28.6219L3.38086 28.7068C3.38858 29.1191 3.42634 29.4672 3.58398 29.7137C3.70332 29.9001 3.89866 30.0352 4.22852 30.0867H4.66309L4.70801 30.1053C4.72342 30.1044 4.73909 30.1044 4.75488 30.1033L4.75684 30.1248L4.85449 30.1648L4.76465 30.2449L4.76562 30.2654C4.75713 30.266 4.74864 30.2659 4.74023 30.2664L3.67285 31.2078L3.55566 31.2371C3.58154 31.3946 3.59026 31.5374 3.58984 31.6492L3.42773 31.6482Z" fill="black"/>
<circle cx="1.26913" cy="1.26913" r="1.26913" transform="matrix(-1 0 0 1 29.5566 0.799011)" fill="black"/>
<circle cx="1.26913" cy="1.26913" r="1.26913" transform="matrix(-1 0 0 1 32.0957 3.53243)" fill="black"/>
<path d="M29.5244 1.77562C29.5235 2.03364 29.5732 2.462 29.7861 2.83226C29.9962 3.19746 30.3677 3.51053 31.0264 3.54808L31.0186 3.71019C30.9854 3.70832 30.9528 3.70457 30.9209 3.7014L29.8135 4.49633L29.7305 4.59496C29.7341 4.69489 29.7363 4.79683 29.7363 4.89965L29.5742 4.89867C29.5742 4.86009 29.5717 4.82201 29.5713 4.78441L29.5576 4.80199L29.5703 4.71703C29.5626 4.30512 29.5245 3.95756 29.3672 3.71117C29.2479 3.52471 29.0526 3.38871 28.7227 3.33715H28.2881L28.2432 3.31859C28.2278 3.31948 28.2121 3.31942 28.1963 3.32055L28.1943 3.29906L28.0967 3.25902L28.1865 3.17894L28.1855 3.15844C28.194 3.15783 28.2025 3.158 28.2109 3.15746L29.2783 2.21605L29.3965 2.18676C29.3706 2.02925 29.3619 1.88642 29.3623 1.77465L29.5244 1.77562Z" fill="black"/>
<circle cx="28.2875" cy="31.3557" r="1.26913" transform="rotate(180 28.2875 31.3557)" fill="black"/>
<circle cx="30.8266" cy="28.6223" r="1.26913" transform="rotate(180 30.8266 28.6223)" fill="black"/>
<path d="M29.5244 31.6482C29.5235 31.3902 29.5732 30.9619 29.7861 30.5916C29.9962 30.2264 30.3677 29.9133 31.0264 29.8758L31.0186 29.7137C30.9854 29.7156 30.9528 29.7193 30.9209 29.7225L29.8135 28.9275L29.7305 28.8289C29.7341 28.729 29.7363 28.627 29.7363 28.5242L29.5742 28.5252C29.5742 28.5638 29.5717 28.6019 29.5713 28.6395L29.5576 28.6219L29.5703 28.7068C29.5626 29.1187 29.5245 29.4663 29.3672 29.7127C29.2479 29.8992 29.0526 30.0352 28.7227 30.0867H28.2881L28.2432 30.1053C28.2278 30.1044 28.2121 30.1044 28.1963 30.1033L28.1943 30.1248L28.0967 30.1648L28.1865 30.2449L28.1855 30.2654C28.194 30.266 28.2025 30.2659 28.2109 30.2664L29.2783 31.2078L29.3965 31.2371C29.3706 31.3946 29.3619 31.5374 29.3623 31.6492L29.5244 31.6482Z" fill="black"/>
<rect x="4.48828" y="0.799011" width="23.8206" height="2.53826" fill="black"/>
<rect x="4.48828" y="30.0866" width="23.8206" height="2.53826" fill="black"/>
<rect x="0.855469" y="28.5246" width="23.6253" height="2.53826" transform="rotate(-90 0.855469 28.5246)" fill="black"/>
<rect x="29.5576" y="28.5246" width="7.81003" height="2.53826" transform="rotate(-90 29.5576 28.5246)" fill="black"/>
<rect x="29.5576" y="12.9044" width="8.00528" height="2.53826" transform="rotate(-90 29.5576 12.9044)" fill="black"/>
</g>
</svg>
